<svg class="icon-size-medium" xmlns="http://www.w3.org/2000/svg" viewBox="0 0 22 22"><path d="M2.5 20a1.93 1.93 0 0 1-1.413-.587A1.928 1.928 0 0 1 .5 18V4c0-.55.196-1.02.587-1.412A1.927 1.927 0 0 1 2.5 2h1V0h2v2h8V0h2v2h1c.55 0 1.021.196 1.413.588.391.391.587.862.587 1.412v6h-2V8h-14v10h7v2h-7Zm14 2c-1.217 0-2.28-.379-3.188-1.137A4.902 4.902 0 0 1 11.6 18h1.55c.217.733.63 1.333 1.238 1.8.608.467 1.312.7 2.112.7.967 0 1.792-.342 2.475-1.025A3.372 3.372 0 0 0 20 17c0-.967-.342-1.792-1.025-2.475A3.372 3.372 0 0 0 16.5 13.5c-.483 0-.933.087-1.35.262a3.41 3.41 0 0 0-1.1.738h1.45V16h-4v-4H13v1.425c.45-.433.975-.78 1.575-1.038A4.821 4.821 0 0 1 16.5 12c1.383 0 2.563.488 3.538 1.463.975.975 1.462 2.154 1.462 3.537s-.487 2.563-1.462 3.538C19.063 21.513 17.883 22 16.5 22ZM2.5 6h14V4h-14v2Z" fill="#49454F"/></svg>