<svg xmlns="http://www.w3.org/2000/svg" viewBox="0 0 24 25"><mask id="Trailing element__a" style="mask-type:alpha" maskUnits="userSpaceOnUse" x="0" y="0" width="24" height="25"><path fill="#D9D9D9" d="M0 .5h24v24H0z"/></mask><g mask="url(#Trailing element__a)"><path d="M5 22.5a1.93 1.93 0 0 1-1.413-.587A1.928 1.928 0 0 1 3 20.5v-14c0-.55.196-1.02.587-1.412A1.927 1.927 0 0 1 5 4.5h1v-2h2v2h8v-2h2v2h1c.55 0 1.021.196 1.413.588.391.391.587.862.587 1.412v14a1.93 1.93 0 0 1-.587 1.413A1.928 1.928 0 0 1 19 22.5H5Zm0-2h14v-10H5v10Zm0-12h14v-2H5v2Zm7 6a.965.965 0 0 1-.712-.288A.965.965 0 0 1 11 13.5c0-.283.096-.521.288-.713A.967.967 0 0 1 12 12.5a.97.97 0 0 1 .713.287.97.97 0 0 1 .287.713.97.97 0 0 1-.287.712.968.968 0 0 1-.713.288Zm-4 0a.968.968 0 0 1-.713-.288A.967.967 0 0 1 7 13.5a.97.97 0 0 1 .287-.713A.97.97 0 0 1 8 12.5a.97.97 0 0 1 .713.287A.97.97 0 0 1 9 13.5a.97.97 0 0 1-.287.712A.968.968 0 0 1 8 14.5Zm8 0a.965.965 0 0 1-.712-.288A.965.965 0 0 1 15 13.5c0-.283.096-.521.288-.713A.967.967 0 0 1 16 12.5a.97.97 0 0 1 .712.287c.192.192.288.43.288.713s-.096.52-.288.712A.965.965 0 0 1 16 14.5Zm-4 4a.965.965 0 0 1-.712-.288A.965.965 0 0 1 11 17.5c0-.283.096-.52.288-.712A.965.965 0 0 1 12 16.5c.283 0 .521.096.713.288A.967.967 0 0 1 13 17.5a.97.97 0 0 1-.287.712.968.968 0 0 1-.713.288Zm-4 0a.968.968 0 0 1-.713-.288A.967.967 0 0 1 7 17.5a.97.97 0 0 1 .287-.712A.968.968 0 0 1 8 16.5c.283 0 .521.096.713.288A.967.967 0 0 1 9 17.5a.97.97 0 0 1-.287.712A.968.968 0 0 1 8 18.5Zm8 0a.965.965 0 0 1-.712-.288A.965.965 0 0 1 15 17.5c0-.283.096-.52.288-.712A.965.965 0 0 1 16 16.5c.283 0 .52.096.712.288A.965.965 0 0 1 17 17.5c0 .283-.096.52-.288.712A.965.965 0 0 1 16 18.5Z" /></g></svg>