<svg class="icon-size-medium  " xmlns="http://www.w3.org/2000/svg" viewBox="0 0 16 16"><path d="m11.083 11.25.479-.479-3.229-3.229V3h-.666v4.833l3.416 3.417ZM8 15.167a6.932 6.932 0 0 1-2.781-.563 7.256 7.256 0 0 1-3.823-3.823A6.93 6.93 0 0 1 .833 8c0-1 .188-1.934.563-2.802a7.136 7.136 0 0 1 1.542-2.271 7.35 7.35 0 0 1 2.281-1.531A6.931 6.931 0 0 1 8 .833c1 0 1.934.188 2.802.563a7.228 7.228 0 0 1 2.271 1.531 7.198 7.198 0 0 1 1.531 2.281A7.01 7.01 0 0 1 15.167 8c0 .986-.188 1.913-.563 2.781a7.35 7.35 0 0 1-1.531 2.281 7.138 7.138 0 0 1-2.271 1.542A6.984 6.984 0 0 1 8 15.167Zm0-.667c1.805 0 3.34-.635 4.604-1.906C13.868 11.324 14.5 9.792 14.5 8c0-1.805-.632-3.34-1.896-4.604C11.34 2.132 9.805 1.5 8 1.5c-1.792 0-3.323.632-4.594 1.896C2.136 4.66 1.5 6.195 1.5 8c0 1.792.635 3.323 1.906 4.594C4.676 13.864 6.208 14.5 8 14.5Z" fill="#49454F"/></svg>