<svg class="icon-size-medium  " xmlns="http://www.w3.org/2000/svg" viewBox="0 0 22 23"><path d="M2.982 20.53c-.55 0-1.021-.195-1.413-.587a1.928 1.928 0 0 1-.587-1.413v-14c0-.55.195-1.02.587-1.412a1.927 1.927 0 0 1 1.413-.588h1v-2h2v2h8v-2h2v2h1c.55 0 1.02.196 1.413.588.391.392.587.862.587 1.412v6h-2v-2h-14v10h7v2h-7Zm14 2c-1.217 0-2.28-.379-3.188-1.137a4.902 4.902 0 0 1-1.712-2.863h1.55a3.434 3.434 0 0 0 1.238 1.8c.608.467 1.312.7 2.112.7.966 0 1.791-.341 2.475-1.024a3.373 3.373 0 0 0 1.025-2.476c0-.966-.342-1.791-1.025-2.475a3.372 3.372 0 0 0-2.475-1.024c-.484 0-.934.087-1.35.261a3.41 3.41 0 0 0-1.1.739h1.45v1.5h-4v-4h1.5v1.425a5.21 5.21 0 0 1 1.575-1.038 4.821 4.821 0 0 1 1.925-.387c1.383 0 2.562.487 3.538 1.462.974.975 1.462 2.154 1.462 3.537 0 1.384-.488 2.563-1.462 3.538-.976.975-2.155 1.462-3.538 1.462Zm-14-16h14v-2h-14v2Z" fill="#E8DEF8"/></svg>