<svg class="icon-size-medium " xmlns="http://www.w3.org/2000/svg" viewBox="0 0 23 17"><path d="M2.5 17c-.55 0-1.02-.196-1.412-.587A1.927 1.927 0 0 1 .5 15c0-.55.196-1.021.588-1.413A1.925 1.925 0 0 1 2.5 13h.263a.64.64 0 0 1 .237.05L7.55 8.5a.641.641 0 0 1-.05-.238V8c0-.55.196-1.021.588-1.413A1.925 1.925 0 0 1 9.5 6c.55 0 1.021.196 1.413.587.391.392.587.863.587 1.413 0 .033-.017.2-.05.5L14 11.05a.642.642 0 0 1 .238-.05h.524c.075 0 .155.017.238.05l3.55-3.55a.642.642 0 0 1-.05-.238V7c0-.55.196-1.021.587-1.413A1.928 1.928 0 0 1 20.5 5c.55 0 1.021.196 1.413.587.391.392.587.863.587 1.413s-.196 1.02-.587 1.412A1.927 1.927 0 0 1 20.5 9h-.262A.641.641 0 0 1 20 8.95l-3.55 3.55c.033.083.05.163.05.238V13a1.93 1.93 0 0 1-.587 1.413A1.928 1.928 0 0 1 14.5 15c-.55 0-1.02-.196-1.412-.587A1.927 1.927 0 0 1 12.5 13v-.262c0-.075.017-.155.05-.238L10 9.95a.641.641 0 0 1-.238.05H9.5c-.033 0-.2-.017-.5-.05L4.45 14.5c.033.083.05.163.05.238V15c0 .55-.196 1.021-.588 1.413A1.925 1.925 0 0 1 2.5 17Zm1-10.025-.625-1.35L1.525 5l1.35-.625.625-1.35.625 1.35L5.475 5l-1.35.625-.625 1.35ZM14.5 6l-.95-2.05L11.5 3l2.05-.95L14.5 0l.95 2.05L17.5 3l-2.05.95L14.5 6Z" fill="#49454F"/></svg>