<svg class="icon-size-medium " xmlns="http://www.w3.org/2000/svg" viewBox="0 0 22 22"><path d="M2.85 21.05a2.554 2.554 0 0 1-1.875-.775A2.554 2.554 0 0 1 .2 18.4v-5.1c0-.733.258-1.358.775-1.875a2.554 2.554 0 0 1 1.875-.775H8c0 .833.292 1.542.875 2.125A2.893 2.893 0 0 0 11 13.65c.8 0 1.492-.292 2.075-.875A3.077 3.077 0 0 0 14 10.65h5.15c.733 0 1.358.258 1.875.775.517.517.775 1.142.775 1.875v5.1c0 .733-.258 1.358-.775 1.875a2.554 2.554 0 0 1-1.875.775H2.85Zm0-2.65h16.3v-5.1H16a5.585 5.585 0 0 1-2.062 2.225 5.404 5.404 0 0 1-2.888.825c-1.1 0-2.1-.275-3-.825a5.058 5.058 0 0 1-2-2.225h-3.2v5.1Zm14.5-9.3L15.5 7.2 19 3.65l1.85 1.9-3.5 3.55Zm-12.7 0-3.5-3.55L3 3.65 6.5 7.2 4.65 9.1Zm5-3.2v-5h2.65v5H9.65Z" fill="#fff"/></svg>